<svg width="1147" height="342" xmlns="http://www.w3.org/2000/svg">
    <path
        d="M846 178v79c2 6 6 7 11 8h1c4-1 9-2 10-8v-79h63v148l-63 16v-50c-3 5-6 9-11 11-11 8-28 12-41 7-14-4-24-18-28-30-5-15-5-40-5-65v-37h63zm169 17c19-22 46-28 74-25 18 2 35 6 50 16l-7 22c-22-10-51-13-64-9-3 1-4 4-2 6 3 3 7 5 12 6l19 4c19 4 33 15 40 31 2 4 3 8 3 13v1c-1 11-5 22-12 30-26 29-70 26-102 13a183 183 0 01-25-13l5-12 5-15c20 11 43 16 66 14 5-1 6-5 4-8-5-3-15-3-30-7l-8-2-1-1c-14-4-29-8-36-24l-1-4v-15c2-8 5-15 10-21zM591 13c23-11 56-13 78 2 9 5 16 13 21 23 5 11 4 25-3 35-9 13-25 15-39 12-8-2-15-7-18-15-4-6-3-14-5-21-17 13-16 34-16 55v7h518l-21 35-8 15H609v147h-74V161h-82l29-50h53c3-39 16-81 56-98zm117 167c12-7 26-12 41-9 5 0 16 4 21 13 8 10 8 25 1 36-6 9-15 14-26 14-14 1-28-10-31-30-2 1-5 4-6 7l-2 7c-3 29-2 61-2 90h-63V178h63v5l4-3zm302-2l-4 9-25 42-9-15-20-36h58z"
        fill="#231F20" />
    <path
        d="M839 173v79c1 6 5 8 10 8h1c5-1 9-2 11-8l-1-79h64v149l-64 15v-50c-2 5-6 9-11 12-11 7-27 11-41 6-14-4-24-18-28-30s-5-32-5-54v-48h64zm168 17c19-22 47-28 74-25 18 2 35 7 51 16l-7 23c-23-11-52-14-65-10-3 1-4 4-2 7l12 5 19 4c19 5 34 15 41 32l2 12v1c-1 11-5 22-12 30-26 29-70 26-102 13a182 182 0 01-25-13l5-12 6-15c19 11 42 16 65 14 6-1 6-5 4-8-4-3-15-3-30-7l-8-2h-1c-14-5-29-9-35-24l-1-4v-16c1-8 4-15 9-21zM583 8c23-11 57-13 78 2 9 5 17 13 21 23 6 11 4 26-2 36-9 12-26 14-40 12-8-2-14-8-18-15-3-7-3-15-5-22-16 13-16 33-16 54v8h518l-29 50H601v147h-74V157l-82-1 29-50h53c3-39 17-81 56-98zm118 168c11-7 26-12 40-10 5 1 16 4 21 13 8 11 8 25 1 36-5 9-15 15-26 14-14 1-28-10-30-30-3 1-5 4-6 7l-2 7c-4 29-3 61-3 90h-63V173h63v6l5-3zm302-3l-30 51-29-50 59-1zM339 256c14 0 26 12 26 26a26 26 0 11-52 0c0-14 12-26 26-26zm-214 0c14 0 26 12 26 26a26 26 0 11-52 0c0-14 12-26 26-26zM0 0c59 3 99 44 105 106 6 69 67 121 135 114 61-6 108-56 112-116h43a168 168 0 01-167 160c-85 0-158-66-166-154-3-40-26-63-62-66zm231 110c2 0 4 1 5 3l40 71 1 4c0 2-2 3-3 4a103 103 0 01-87 2c-2 0-3-2-3-3v-5l42-73c1-2 3-3 5-3zm-31-6c2 0 4 1 5 3v6l-36 63a6 6 0 01-9 2c-19-17-32-40-36-65v-3a6 6 0 016-6h70zm126 0c1 0 3 0 4 2 1 1 2 3 1 4a106 106 0 01-31 63c-1 2-3 2-5 2s-3-1-4-3l-34-59a6 6 0 015-9h64z"
        fill="#E1251B" />
    <path
        d="M705 119c4 4 6 9 6 14 0 6-3 11-7 14-4 4-10 6-15 6-6 0-11-2-15-6s-6-9-6-14 2-10 6-14 10-5 15-5c6-1 12 1 16 5zm47 0c4 4 6 9 6 14 0 6-2 11-6 14-5 4-10 6-16 6-5 0-11-2-15-6-3-4-5-9-6-14 0-5 3-10 7-14s9-5 15-5c5-1 11 1 15 5zm200 0c4 4 6 9 6 14 0 6-2 11-6 14-5 4-10 6-16 6-5 0-11-2-15-6s-6-9-6-14 2-10 7-14c4-4 9-5 14-5 6-1 12 1 16 5zm-100-5c3 0 7 0 10 2l3-2h2l1 13h-3c-2-5-7-11-14-11-4 0-8 2-8 6 0 3 4 4 7 5l4 1c8 1 16 3 16 12 0 4-2 8-5 10s-7 3-11 3-8-2-11-4l-3 3h-3v-14h2c3 6 8 12 16 12 4 0 8-2 8-6s-3-5-6-6h-4l-11-4c-3-2-5-5-5-9 0-8 7-11 15-11zm226 2l3-2h3v13h-2c-3-5-7-11-15-11-3 0-7 2-7 6 0 3 3 4 7 5l3 1c8 1 16 3 16 12 0 4-2 8-5 10s-6 3-10 3-8-2-11-4l-4 3h-3v-14h3c2 6 8 12 15 12 4 0 8-2 8-6s-2-5-6-6h-4l-11-4c-3-2-5-5-5-9 0-8 7-11 15-11 4-1 7 0 10 2zm-94-2h4l10 2c2 2 4 5 4 8 0 6-6 9-12 9 4 0 7 4 8 8l1 3 1 3 1 1c3 1 3-3 3-5h3v3c-1 5-5 6-10 6-2 0-5 0-6-2-2-1-3-3-3-5v-4c0-4-1-7-6-7h-4v13c0 1 0 2 2 2h4v3h-22v-3h3c2 0 2-1 3-3v-24l-1-4-3-1h-2v-3h22zm-203 0h5a21 21 0 0115 6c3 3 5 8 5 13l-2 9c-2 4-6 7-10 9l-12 1h-20v-3h4l1-1 1-2v-27l-2-2h-4v-3h19zm265 0l1 14h-3c-3-8-5-11-15-11l-4 1-1 1v12a8 8 0 009-7h3v18h-3c0-5-3-8-9-8v11c0 3 0 4 3 4h3c9 0 12-4 14-11h3v14h-39v-3c1 0 5 1 6-1v-30l-1-1h-5v-3h38zm-383 0l1 14h-3c-2-7-5-11-14-11l-4 1-1 2v11c6 0 8-2 9-7h3v18h-3l-1-4c-1-3-4-5-7-4h-1v11c0 3 0 4 3 4h4v3h-23v-3h5v-1h1v-28l-1-3h-5v-3h37zm248 0l1 14h-3c-1-5-3-11-10-11l-2 1v28c0 2 0 2 3 3h4v3h-23v-3h5l1-1v-30l-2-1c-6 0-9 7-10 11h-2l1-14h37zm-221 2c-10 0-11 11-11 17l2 12c2 3 5 5 9 5 7 0 8-6 9-11l1-6c0-6-1-17-10-17zm247 0c-10 0-11 11-11 17l3 12c1 3 5 5 9 5 5 0 7-4 8-9v-2l1-6c0-6-1-17-10-17zm-200 0c-10 0-10 11-10 17 0 4 0 8 2 12 1 3 5 5 9 5 6 0 8-6 9-11v-6c0-6-1-17-10-17zm41 2v30l4 1c9 0 11-4 12-12l1-4-1-6c-1-7-4-10-12-10l-4 1zm201-1l-1 3v11h4c6 0 9-2 9-7s-3-7-8-7h-4z"
        fill="#FFF" />
    <path fill="#000" d="M1132 136a14 14 0 110 29 14 14 0 010-29zm0 2a12 12 0 100 24 12 12 0 000-24z" />
    <path fill="#000"
        d="M1137 143c1 1 2 2 1 3 1 2 0 3-1 4l-3 1 5 7h-3l-4-7h-3v7h-2v-16h6l4 1zm-3 1h-5v5h6l1-1v-3l-1-1h-1z" />
</svg>